<?xml version="1.0" encoding="UTF-8"?><svg id="App_Icon_Kit_B" xmlns="http://www.w3.org/2000/svg" xmlns:xlink="http://www.w3.org/1999/xlink" viewBox="0 0 120 120"><defs><style>.cls-1{fill:url(#linear-gradient-2);}.cls-2{fill:#fff;}.cls-3{fill:url(#linear-gradient-3);}.cls-4{fill:url(#linear-gradient);}.cls-5{opacity:.71;}</style><linearGradient id="linear-gradient" x1="68.08" y1="955.92" x2="955.92" y2="68.08" gradientTransform="matrix(1, 0, 0, 1, 0, 0)" gradientUnits="userSpaceOnUse"><stop offset="0" stop-color="#6abd45"/><stop offset="1" stop-color="#009d67" stop-opacity=".7"/></linearGradient><symbol id="Icon" viewBox="0 0 1024 1024"><g><path id="App_Icon_Placeholder" class="cls-4" d="M356.99,0h310c102.81,0,154.19,0,209.53,17.49,60.42,21.99,108,69.58,129.98,129.99,17.5,55.34,17.5,106.73,17.5,209.53v309.98c0,102.8,0,154.19-17.5,209.53-21.98,60.42-69.57,108-129.98,129.98-55.33,17.5-106.72,17.5-209.53,17.5H356.99c-102.79,0-154.18,0-209.51-17.5-60.42-21.98-108-69.57-129.98-129.98C0,821.18,0,769.79,0,666.99V357.01c0-102.79,0-154.18,17.5-209.53C39.48,87.07,87.07,39.48,147.48,17.49,202.82,0,254.2,0,356.99,0h0"/><path class="cls-2" d="M269.43,117c38.42,27.68,192.32,170.75,192.32,683h115.03c0-490.87-265.83-659.52-307.35-683Zm502.36,110.54c-17.17,5.07-139.35,45.34-201.31,212.99,4.17,13.83,7.97,28.21,11.68,43.14,6.99,28.01,12.91,57.95,17.97,89.87,36.64-257.57,145.1-331.56,171.65-345.99ZM174.17,339.87s143.79,123.57,143.79,460.13h115.03c0-293.01-258.82-460.13-258.82-460.13Zm690.19,0s-258.82,167.11-258.82,460.13h115.03c0-336.55,143.79-460.13,143.79-460.13Z"/></g></symbol><linearGradient id="linear-gradient-2" x1="27" y1="60.08" x2="93" y2="60.08" gradientTransform="matrix(1, 0, 0, 1, 0, 0)" gradientUnits="userSpaceOnUse"><stop offset="0" stop-color="#fff"/><stop offset="1" stop-color="#000"/></linearGradient><linearGradient id="linear-gradient-3" x1="0" x2="120" xlink:href="#linear-gradient-2"/></defs><g id="ICONS"><g id="Notifications_and_Activity"><g id="Loading_Badge"><use width="1024" height="1024" transform="translate(0 .08) scale(.12)" xlink:href="#Icon"/><g id="App_Icon_Loading_Indicator_Overlay" class="cls-5"><path class="cls-1" d="M60,27.08c-18.23,0-33,14.77-33,33s14.77,33,33,33,33-14.77,33-33c0-1.99-.19-3.94-.52-5.83l-32.48,5.83V27.08Z"/><path class="cls-3" d="M117.95,17.36c-2.58-7.08-8.15-12.66-15.23-15.23C96.23,.08,90.21,.08,78.16,.08H41.84C29.79,.08,23.77,.08,17.28,2.13,10.2,4.7,4.63,10.28,2.05,17.36,0,23.85,0,29.87,0,41.91v36.33c0,12.05,0,18.07,2.05,24.55,2.58,7.08,8.15,12.66,15.23,15.23,6.48,2.05,12.51,2.05,24.55,2.05h36.33c12.05,0,18.07,0,24.55-2.05,7.08-2.58,12.66-8.15,15.23-15.23,2.05-6.48,2.05-12.51,2.05-24.55V41.91c0-12.05,0-18.07-2.05-24.55ZM60,99.08c-21.54,0-39-17.46-39-39S38.46,21.08,60,21.08s39,17.46,39,39-17.46,39-39,39Z"/></g></g></g></g></svg>