<?xml version="1.0" encoding="UTF-8"?><svg id="App_Icon_Kit_B" xmlns="http://www.w3.org/2000/svg" xmlns:xlink="http://www.w3.org/1999/xlink" viewBox="0 0 87 87"><defs><style>.cls-1{fill:#fff;}.cls-2{fill:url(#linear-gradient);}</style><linearGradient id="linear-gradient" x1="68.08" y1="955.92" x2="955.92" y2="68.08" gradientTransform="matrix(1, 0, 0, 1, 0, 0)" gradientUnits="userSpaceOnUse"><stop offset="0" stop-color="#6abd45"/><stop offset="1" stop-color="#009d67" stop-opacity=".7"/></linearGradient><symbol id="Icon" viewBox="0 0 1024 1024"><g><path id="App_Icon_Placeholder" class="cls-2" d="M356.99,0h310c102.81,0,154.19,0,209.53,17.49,60.42,21.99,108,69.58,129.98,129.99,17.5,55.34,17.5,106.73,17.5,209.53v309.98c0,102.8,0,154.19-17.5,209.53-21.98,60.42-69.57,108-129.98,129.98-55.33,17.5-106.72,17.5-209.53,17.5H356.99c-102.79,0-154.18,0-209.51-17.5-60.42-21.98-108-69.57-129.98-129.98C0,821.18,0,769.79,0,666.99V357.01c0-102.79,0-154.18,17.5-209.53C39.48,87.07,87.07,39.48,147.48,17.49,202.82,0,254.2,0,356.99,0h0"/><path class="cls-1" d="M269.43,117c38.42,27.68,192.32,170.75,192.32,683h115.03c0-490.87-265.83-659.52-307.35-683Zm502.36,110.54c-17.17,5.07-139.35,45.34-201.31,212.99,4.17,13.83,7.97,28.21,11.68,43.14,6.99,28.01,12.91,57.95,17.97,89.87,36.64-257.57,145.1-331.56,171.65-345.99ZM174.17,339.87s143.79,123.57,143.79,460.13h115.03c0-293.01-258.82-460.13-258.82-460.13Zm690.19,0s-258.82,167.11-258.82,460.13h115.03c0-336.55,143.79-460.13,143.79-460.13Z"/></g></symbol></defs><g id="ICONS"><g id="Settings_Icon"><g id="_7x87"><use width="1024" height="1024" transform="translate(0 -.03) scale(.08)" xlink:href="#Icon"/></g></g></g></svg>