<?xml version="1.0" encoding="UTF-8"?><svg id="Layer_2" xmlns="http://www.w3.org/2000/svg" xmlns:xlink="http://www.w3.org/1999/xlink" viewBox="0 0 764.73 186"><defs><style>.cls-1{fill:url(#linear-gradient-2);}.cls-2{fill:url(#linear-gradient-6);}.cls-3{fill:url(#linear-gradient-5);}.cls-4{fill:url(#linear-gradient-3);}.cls-5{fill:url(#linear-gradient);}.cls-6{fill:url(#linear-gradient-4);}</style><linearGradient id="linear-gradient" x1="317.95" y1="148.75" x2="516.57" y2="22.42" gradientTransform="matrix(1, 0, 0, 1, 0, 0)" gradientUnits="userSpaceOnUse"><stop offset=".57" stop-color="#75ba43"/><stop offset=".67" stop-color="#72ba46"/><stop offset=".75" stop-color="#6abd50"/><stop offset=".81" stop-color="#61c15d"/></linearGradient><linearGradient id="linear-gradient-2" x1="557.43" y1="168.84" x2="744.36" y2="10.38" gradientTransform="matrix(1, 0, 0, 1, 0, 0)" gradientUnits="userSpaceOnUse"><stop offset=".17" stop-color="#75ba43"/><stop offset=".3" stop-color="#70bb49"/><stop offset=".8" stop-color="#61c15d"/></linearGradient><linearGradient id="linear-gradient-3" x1="209.67" y1="137.74" x2="139.69" y2="-27.45" gradientTransform="matrix(1, 0, 0, 1, 0, 0)" gradientUnits="userSpaceOnUse"><stop offset=".16" stop-color="#75ba43"/><stop offset=".47" stop-color="#73ba45"/><stop offset=".63" stop-color="#6dbc4d"/><stop offset=".76" stop-color="#62c05a"/><stop offset=".78" stop-color="#61c15d"/></linearGradient><linearGradient id="linear-gradient-4" x1="39.82" y1="91.85" x2="135.06" y2="91.85" gradientTransform="matrix(1, 0, 0, 1, 0, 0)" gradientUnits="userSpaceOnUse"><stop offset=".12" stop-color="#75ba43"/><stop offset=".45" stop-color="#73ba45"/><stop offset=".63" stop-color="#6dbc4d"/><stop offset=".76" stop-color="#62c05a"/><stop offset=".78" stop-color="#61c15d"/></linearGradient><linearGradient id="linear-gradient-5" x1="28.12" y1="109.11" x2="106.08" y2="109.11" gradientTransform="matrix(1, 0, 0, 1, 0, 0)" gradientUnits="userSpaceOnUse"><stop offset=".12" stop-color="#75ba43"/><stop offset=".56" stop-color="#73ba45"/><stop offset=".79" stop-color="#6dbc4d"/><stop offset=".98" stop-color="#62c05a"/><stop offset="1" stop-color="#61c15d"/></linearGradient><linearGradient id="linear-gradient-6" x1="146.49" y1="107.13" x2="221.82" y2="107.13" xlink:href="#linear-gradient-5"/></defs><g id="App_Icon_Kit_B"><g id="LOGO"><g id="TURF"><path class="cls-5" d="M282,94.37h-45.08v-28.69h178.45c0,23.32,0,46.39,0,69.43-1.08,19.08,17.04,25.41,33.14,21.49,9.88-2.01,15.65-9.28,15.67-19.35,.04-23.63,.01-70.75,.01-70.75h44.34s-.5,44.14,.09,66.44c.98,27.55-16.68,45.53-40.41,50.19-37.55,7.61-97.55,2.59-97.23-47.37-.07-13.57-.01-27.14-.01-41.4h-44.72v88.51h-44.26V94.37Z"/><path class="cls-1" d="M764.73,90.28h-64.75v21.31h54.91v23.77h-54.91v47.59c-28.73,.79-57.41,0-86.15,.36-2.89,.01-4.54-.84-6.11-3.31-7.16-11.23-14.75-22.18-21.83-33.45-5.09-8.09-11.94-12.03-21.96-10.82v47.16h-44.26V65.89c34.35,.57,69.45-2.98,103.46,2.55,33.1,6.12,32.67,50.21,3.42,59.41-3.45,1.31-7.05,2.24-11.5,3.64,22.43,6.3,27.8,26.5,39.84,43.34V65.69h109.82v24.59Zm-200.8-1.09v25.13c11.28-2.43,40.11,2.65,40.06-13.08,.19-16.16-28.73-10.04-40.06-12.05Z"/></g><g id="GRASS"><path class="cls-4" d="M140.97,131.65c-1.06-17.61-6.83-32.36-13.48-46.78-1.76-3.83-1.48-6.61,.75-9.94,22.25-32,57.34-51.82,93.34-65.12-40.14,31.42-66.67,71.7-80.61,121.84Z"/><path class="cls-6" d="M39.82,0c63.4,36.85,107.44,109.18,92.22,183.71h-49.5C98.12,119.53,67.44,56.5,39.82,0Z"/><path class="cls-3" d="M.58,33.69c50.61,30.72,88.47,90.34,74.42,150.84H34.6C48.53,132.17,21.92,80.53,0,34.33c.21-.2,.41-.41,.58-.65Z"/><path class="cls-2" d="M221.82,32.15c-20.14,47.79-45.97,97.48-32.04,150.74h-41.05c-11.31-60.4,21.16-119.62,72.16-151.53l.93,.79Z"/></g></g></g></svg>